<svg xmlns="http://www.w3.org/2000/svg" width="760" height="320" viewBox="0 0 760 320" role="img" aria-label="Inkvoice GitHub stars over time">
<style>.tick{fill:#64748b;font:11px sans-serif}.grid{stroke:#e2e8f0;stroke-width:1}</style>
<line x1="60" y1="272" x2="736" y2="272" class="grid"/>
<text x="52" y="276" class="tick" text-anchor="end">0</text>
<line x1="60" y1="224" x2="736" y2="224" class="grid"/>
<text x="52" y="228" class="tick" text-anchor="end">4</text>
<line x1="60" y1="176" x2="736" y2="176" class="grid"/>
<text x="52" y="180" class="tick" text-anchor="end">8</text>
<line x1="60" y1="128" x2="736" y2="128" class="grid"/>
<text x="52" y="132" class="tick" text-anchor="end">12</text>
<line x1="60" y1="80" x2="736" y2="80" class="grid"/>
<text x="52" y="84" class="tick" text-anchor="end">16</text>
<line x1="60" y1="20" x2="736" y2="20" class="grid"/>
<text x="52" y="24" class="tick" text-anchor="end">21</text>
<text x="60" y="292" class="tick" text-anchor="middle">2026-06-15</text>
<text x="398" y="292" class="tick" text-anchor="middle">2026-07-13</text>
<text x="736" y="292" class="tick" text-anchor="middle">2026-09-27</text>
<line x1="60" y1="272" x2="736" y2="272" stroke="#e2e8f0"/>
<polygon points="60,272 60,272 72,272 84,272 96,272 108,272 120,272 132,272 144,272 157,272 169,272 181,272 193,272 205,272 217,272 229,272 241,272 253,260 265,260 277,248 289,248 301,248 314,248 326,248 338,248 350,236 362,224 374,224 386,224 398,212 410,212 422,200 434,200 446,200 458,200 470,200 482,200 495,200 507,200 519,200 531,200 543,188 555,188 567,188 579,188 591,188 603,188 615,188 627,188 639,188 652,176 664,152 676,116 688,20 700,272 712,272 724,272 736,272 736,272" fill="#6366f1" fill-opacity="0.12"/>
<polyline points="60,272 72,272 84,272 96,272 108,272 120,272 132,272 144,272 157,272 169,272 181,272 193,272 205,272 217,272 229,272 241,272 253,260 265,260 277,248 289,248 301,248 314,248 326,248 338,248 350,236 362,224 374,224 386,224 398,212 410,212 422,200 434,200 446,200 458,200 470,200 482,200 495,200 507,200 519,200 531,200 543,188 555,188 567,188 579,188 591,188 603,188 615,188 627,188 639,188 652,176 664,152 676,116 688,20 700,272 712,272 724,272 736,272" fill="none" stroke="#6366f1" stroke-width="2"/>
<circle cx="736" cy="272" r="3" fill="#6366f1"/>
<text x="736" y="262" class="tick" text-anchor="end">⭐ 0</text>
</svg>